HIERARCHY
ROOT root
{
  OFFSET 0.000000 0.000000 0.000000
  CHANNELS 6 Xposition Yposition Zposition Zrotation Yrotation Xrotation
  JOINT lhipjoint
  {
    OFFSET 0.000000 0.000000 0.000000
    CHANNELS 3 Zrotation Yrotation Xrotation
    JOINT lfemur
    {
      OFFSET 0.076955 -0.088858 0.062674
      CHANNELS 3 Zrotation Yrotation Xrotation
      JOINT ltibia
      {
        OFFSET 0.134602 -0.369817 0.000000
        CHANNELS 3 Zrotation Yrotation Xrotation
        JOINT lfoot
        {
          OFFSET 0.133867 -0.367797 0.000000
          CHANNELS 3 Zrotation Yrotation Xrotation
          JOINT ltoes
          {
            OFFSET 0.016413 -0.045094 0.113675
            CHANNELS 3 Zrotation Yrotation Xrotation
            End Site
            {
              OFFSET 0.000000 -0.000000 0.060917
            }
          }
        }
      }
    }
  }
  JOINT rhipjoint
  {
    OFFSET 0.000000 0.000000 0.000000
    CHANNELS 3 Zrotation Yrotation Xrotation
    JOINT rfemur
    {
      OFFSET -0.076961 -0.088859 0.062674
      CHANNELS 3 Zrotation Yrotation Xrotation
      JOINT rtibia
      {
        OFFSET -0.129575 -0.356005 0.000000
        CHANNELS 3 Zrotation Yrotation Xrotation
        JOINT rfoot
        {
          OFFSET -0.136022 -0.373719 0.000000
          CHANNELS 3 Zrotation Yrotation Xrotation
          JOINT rtoes
          {
            OFFSET -0.013093 -0.035974 0.108504
            CHANNELS 3 Zrotation Yrotation Xrotation
            End Site
            {
              OFFSET -0.000000 -0.000000 0.057326
            }
          }
        }
      }
    }
  }
  JOINT lowerback
  {
    OFFSET 0.000000 0.000000 0.000000
    CHANNELS 3 Zrotation Yrotation Xrotation
    JOINT upperback
    {
      OFFSET -0.004835 0.114922 -0.013864
      CHANNELS 3 Zrotation Yrotation Xrotation
      JOINT thorax
      {
        OFFSET -0.000021 0.116102 0.000122
        CHANNELS 3 Zrotation Yrotation Xrotation
        JOINT lowerneck
        {
          OFFSET 0.002188 0.117937 0.006733
          CHANNELS 3 Zrotation Yrotation Xrotation
          JOINT upperneck
          {
            OFFSET -0.002068 0.095682 0.017943
            CHANNELS 3 Zrotation Yrotation Xrotation
            JOINT head
            {
              OFFSET 0.000526 0.096058 -0.025972
              CHANNELS 3 Zrotation Yrotation Xrotation
              End Site
              {
                OFFSET 0.000701 0.100257 -0.010937
              }
            }
          }
        }
        JOINT lclavicle
        {
          OFFSET 0.002188 0.117937 0.006733
          CHANNELS 3 Zrotation Yrotation Xrotation
          JOINT lhumerus
          {
            OFFSET 0.211297 0.045898 -0.020685
            CHANNELS 3 Zrotation Yrotation Xrotation
            JOINT lradius
            {
              OFFSET 0.280633 -0.000000 -0.000000
              CHANNELS 3 Zrotation Yrotation Xrotation
              JOINT lwrist
              {
                OFFSET 0.189547 -0.000000 0.000000
                CHANNELS 3 Zrotation Yrotation Xrotation
                End Site
                {
                  OFFSET 0.094773 -0.000000 0.000000
                }
              }
            }
          }
        }
        JOINT rclavicle
        {
          OFFSET 0.002188 0.117937 0.006733
          CHANNELS 3 Zrotation Yrotation Xrotation
          JOINT rhumerus
          {
            OFFSET -0.211884 0.028598 -0.003683
            CHANNELS 3 Zrotation Yrotation Xrotation
            JOINT rradius
            {
              OFFSET -0.280243 -0.000000 -0.000000
              CHANNELS 3 Zrotation Yrotation Xrotation
              JOINT rwrist
              {
                OFFSET -0.189049 -0.000000 0.000000
                CHANNELS 3 Zrotation Yrotation Xrotation
                End Site
                {
                  OFFSET -0.094524 -0.000000 0.000000
                }
              }
            }
          }
        }
      }
    }
  }
}
MOTION
Frames: 7
Frame Time: 0.04166667
0.00000 0.96144 0.00000 151.79000 -80.02290 -147.53900 0.00000 -0.00000 0.00000 -21.90180 -3.61018 -1.95714 0.78899 5.67026 15.83063 0.80343 14.86716 -28.04720 0.29920 3.51708 9.72182 0.00000 -0.00000 0.00000 7.60804 3.18862 2.19133 -0.01783 -0.86222 2.36978 0.79360 -17.53404 -15.26358 -0.00292 0.34891 -0.95868 -5.78782 -0.29092 -5.93728 -0.25541 0.07243 1.70337 2.99207 -0.14592 5.10899 -6.63506 -1.27029 -17.75710 2.45515 -2.55821 40.79800 1.62029 -2.35807 18.48290 -0.00000 -0.00000 0.00000 -90.71878 -4.87345 26.41678 11.36924 -18.85201 -1.89351 0.00000 -0.00000 -4.30334 -0.00000 -0.00000 0.00000 87.26455 2.29905 19.10506 -13.50824 22.02734 -2.64086 -0.00000 0.00000 -5.19977
0.00000 0.96116 0.00000 149.73500 -79.74790 -145.65800 0.00000 -0.00000 0.00000 -22.37690 -3.71781 -1.37177 0.75529 5.55062 15.48594 0.79267 15.14995 -28.26234 0.28760 3.44883 9.53092 0.00000 -0.00000 0.00000 7.17846 3.46491 1.55795 -0.05278 -1.48261 4.07780 0.68239 -17.08215 -16.12292 -0.00341 0.37686 -1.03548 -6.01542 -0.36809 -6.12090 -0.40753 0.01214 1.88629 2.95441 -0.19426 5.41333 -7.31603 -2.29142 -17.69810 2.47714 -3.70420 39.42010 1.52248 -2.83880 17.77390 -0.00000 -0.00000 0.00000 -90.67748 -5.21294 26.74664 11.11291 -18.46111 -1.81151 0.00000 -0.00000 -4.45728 -0.00000 -0.00000 0.00000 87.17733 2.09208 18.80471 -13.43027 21.91440 -2.61169 -0.00000 0.00000 -5.30976
0.00000 0.96181 0.00000 153.86000 -80.18420 -149.54200 0.00000 -0.00000 0.00000 -21.22491 -4.31535 -1.55451 0.81284 5.75330 16.07027 0.90990 15.02942 -28.97012 0.32398 3.65851 10.11786 0.00000 -0.00000 0.00000 8.33536 2.73310 3.65322 0.00000 -0.00000 0.00000 0.89646 -18.01647 -14.57610 -0.00193 0.28347 -0.77886 -5.35360 -0.49354 -6.36268 -0.06534 -0.21175 1.69957 2.91688 -0.28135 5.37133 -8.02051 -3.06236 -17.49560 2.41778 -4.43357 38.05620 1.48232 -3.17881 17.05140 0.00000 -0.00000 0.00000 -91.04405 -4.93187 25.46524 11.08446 -18.41760 -1.80252 0.00000 -0.00000 -3.03533 0.00000 -0.00000 0.00000 87.26273 1.89360 17.61095 -12.93008 21.18468 -2.42796 -0.00000 0.00000 -4.11069
0.00000 0.96206 0.00000 154.59400 -80.42030 -150.20600 0.00000 -0.00000 0.00000 -20.81336 -4.54659 -1.33529 0.80558 5.72815 15.99766 0.92298 15.09452 -29.12652 0.29513 3.49331 9.65533 0.00000 -0.00000 0.00000 8.78015 2.54696 3.72624 0.00000 -0.00000 0.00000 0.87389 -17.87672 -14.63145 -0.00005 0.04762 -0.13083 -5.11758 -0.57297 -6.21961 0.08257 -0.36323 1.28924 2.92384 -0.32983 4.87107 -8.96440 -3.79096 -16.67900 2.74294 -5.24615 36.52310 1.65279 -3.54485 16.16610 0.00000 -0.00000 0.00000 -91.22766 -4.05116 25.38900 11.29956 -18.74595 -1.87106 0.00000 -0.00000 -3.13644 0.00000 -0.00000 0.00000 87.09427 1.34830 17.67441 -12.94084 21.20047 -2.43185 -0.00000 0.00000 -4.32219
0.00000 0.96134 0.00000 151.73100 -80.41970 -147.42200 0.00000 -0.00000 0.00000 -21.18051 -5.14215 -0.53580 0.74880 5.52724 15.41869 0.93018 15.48894 -29.57362 0.35633 3.83500 10.61293 0.00000 -0.00000 0.00000 8.54086 2.79147 2.29471 -0.03306 -1.17365 3.22673 0.62572 -16.79419 -16.40282 -0.00009 -0.06165 0.16937 -5.33759 -0.60262 -7.01724 -0.10046 -0.32083 1.52812 2.85776 -0.33577 5.57314 -8.85903 -4.22905 -17.19360 2.58198 -5.68486 35.76900 1.47777 -3.67717 15.93840 0.00000 -0.00000 0.00000 -91.20158 -4.29159 25.68733 11.32973 -18.79189 -1.88077 0.00000 -0.00000 -3.43970 0.00000 -0.00000 0.00000 87.20316 1.73395 17.45423 -13.02322 21.32123 -2.46172 -0.00000 0.00000 -4.40439
0.00000 0.96186 0.00000 150.66400 -80.63810 -146.28600 0.00000 -0.00000 0.00000 -20.94359 -5.37143 -0.37886 0.71386 5.39953 15.05170 0.79839 16.00058 -29.19527 0.25089 3.22295 8.90010 0.00000 -0.00000 0.00000 8.84426 2.79424 1.41156 -0.07057 -1.71386 4.71551 0.53046 -16.41386 -17.08110 -0.00180 -0.27399 0.75282 -5.54519 -0.63931 -7.32422 -0.07583 -0.33035 1.59021 2.99813 -0.35560 5.81723 -9.35036 -4.80488 -17.35410 3.11058 -6.35669 34.40380 1.66662 -3.87691 15.41100 -0.00000 -0.00000 0.00000 -91.17564 -4.81302 25.73467 11.11580 -18.46553 -1.81243 0.00000 -0.00000 -3.57849 -0.00000 -0.00000 0.00000 87.27405 2.25370 18.00267 -13.18521 21.55799 -2.52094 -0.00000 0.00000 -4.96487
0.00000 0.96127 0.00000 149.93700 -81.21040 -145.65900 0.00000 -0.00000 0.00000 -20.42015 -5.32133 -0.15099 0.70254 5.35744 14.93092 0.73485 15.91677 -28.65865 0.18620 2.77913 7.66443 0.00000 -0.00000 0.00000 9.44877 2.34315 1.15647 -0.09766 -2.01533 5.54802 0.42135 -15.94851 -17.75424 -0.00257 -0.32717 0.89893 -5.44887 -0.65864 -7.07946 0.02383 -0.39331 1.33381 3.04249 -0.36891 5.41268 -9.39224 -5.25271 -17.69820 2.94319 -6.81426 33.84420 1.51172 -4.05967 15.26000 0.00000 0.00000 0.00000 -91.40465 -4.19174 25.39936 11.24550 -18.66357 -1.85372 0.00000 -0.00000 -3.43617 0.00000 0.00000 0.00000 87.24225 1.84508 18.99494 -13.76223 22.39378 -2.73687 -0.00000 0.00000 -6.07275
